<svg width="74" height="25" viewBox="0 0 74 25" fill="none" xmlns="http://www.w3.org/2000/svg">
<g clip-path="url(#clip0_470_1488)">
<path d="M52.5885 22.6045C53.0377 22.6045 53.3034 22.2642 53.3034 21.7322C53.3034 21.1806 53.0182 20.8599 52.598 20.8599C52.3577 20.8599 52.1908 20.9664 52.0659 21.1356H52.06V20.2639H51.7996V22.556H52.06V22.3382H52.0659C52.2009 22.524 52.3642 22.6045 52.5885 22.6045ZM52.5696 22.3861C52.2168 22.3861 52.0434 22.1074 52.0434 21.7351C52.0434 21.3765 52.2103 21.0812 52.5725 21.0812C52.8868 21.0812 53.0377 21.3635 53.0377 21.7351C53.0377 22.1104 52.8868 22.3861 52.5696 22.3861ZM53.7431 23.1046C53.9449 23.1046 54.0733 23.0336 54.2077 22.6903L54.9167 20.8983H54.6409L54.2621 21.931C54.2112 22.0689 54.1532 22.2548 54.1532 22.2548H54.1473C54.1473 22.2548 54.0858 22.0689 54.0349 21.931L53.6437 20.8983H53.3614L54.0088 22.508L53.9449 22.6714C53.881 22.8318 53.807 22.8738 53.6981 22.8738C53.6373 22.8769 53.5767 22.8647 53.5218 22.8383H53.5088V23.0691C53.5798 23.0981 53.6437 23.1046 53.7431 23.1046ZM55.5813 22.556H56.0174V20.2639H55.5813V22.556ZM57.0839 22.6045C57.5934 22.6045 57.9432 22.2258 57.9432 21.7351C57.9432 21.2445 57.594 20.8664 57.0839 20.8664C56.5743 20.8664 56.2246 21.2451 56.2246 21.7351C56.2246 22.2263 56.5737 22.6045 57.0839 22.6045ZM57.0839 22.2707C56.8146 22.2707 56.6672 22.0559 56.6672 21.7351C56.6672 21.415 56.8146 21.1966 57.0839 21.1966C57.3502 21.1966 57.5005 21.415 57.5005 21.7351C57.5005 22.0559 57.3502 22.2707 57.0839 22.2707ZM58.8705 23.117C59.1143 23.117 59.3256 23.0596 59.4635 22.9312C59.5854 22.8187 59.6594 22.6619 59.6594 22.4311V20.9114H59.2392V21.0848H59.2327C59.1333 20.9469 58.983 20.8664 58.777 20.8664C58.361 20.8664 58.0657 21.1806 58.0657 21.6712C58.0657 22.1683 58.4249 22.4566 58.7906 22.4566C58.9989 22.4566 59.1238 22.3737 59.2197 22.2642H59.2298V22.4441C59.2298 22.6684 59.1114 22.7874 58.864 22.7874C58.6622 22.7874 58.5693 22.7069 58.5338 22.6039H58.1012C58.1456 22.9247 58.4213 23.117 58.8705 23.117ZM58.8646 22.1074C58.6397 22.1074 58.4918 21.9441 58.4918 21.6647C58.4918 21.3889 58.6397 21.2161 58.8611 21.2161C59.1238 21.2161 59.2522 21.4209 59.2522 21.6618C59.2522 21.9056 59.1398 22.1074 58.864 22.1074H58.8646ZM60.7193 22.6045C61.2289 22.6045 61.5786 22.2258 61.5786 21.7351C61.5786 21.2445 61.2289 20.8664 60.7193 20.8664C60.2092 20.8664 59.86 21.2451 59.86 21.7351C59.86 22.2263 60.2092 22.6045 60.7193 22.6045ZM60.7193 22.2707C60.4501 22.2707 60.3021 22.0559 60.3021 21.7351C60.3021 21.415 60.4501 21.1966 60.7193 21.1966C60.985 21.1966 61.136 21.415 61.136 21.7351C61.136 22.0559 60.985 22.2707 60.7193 22.2707ZM61.781 22.556H62.2172V20.9114H61.781V22.556ZM61.781 20.6551H62.2172V20.2639H61.781V20.6551ZM62.4983 23.0945H62.9345V22.3707H62.9404C63.0339 22.5122 63.1842 22.6051 63.415 22.6051C63.8381 22.6051 64.127 22.2678 64.127 21.7357C64.127 21.2226 63.8482 20.867 63.412 20.867C63.317 20.8654 63.223 20.8875 63.1385 20.9312C63.054 20.9749 62.9817 21.0388 62.9279 21.1173H62.9185V20.9119H62.4983V23.0957V23.0945ZM63.3221 22.2423C63.0623 22.2423 62.9244 22.0464 62.9244 21.7482C62.9244 21.4534 63.0339 21.2191 63.3061 21.2191C63.5754 21.2191 63.6843 21.4369 63.6843 21.7482C63.6843 22.0595 63.5434 22.2423 63.3221 22.2423ZM64.9969 22.6045C65.407 22.6045 65.6893 22.4057 65.6893 22.0754C65.6893 21.6908 65.3845 21.6138 65.1088 21.5558C64.875 21.5079 64.6572 21.4949 64.6572 21.354C64.6572 21.2357 64.7691 21.1706 64.9389 21.1706C65.1253 21.1706 65.2372 21.2357 65.2567 21.4114H65.6508C65.6189 21.0812 65.3786 20.867 64.9454 20.867C64.5702 20.867 64.2755 21.0362 64.2755 21.3925C64.2755 21.7511 64.5637 21.8316 64.859 21.8896C65.0833 21.934 65.2916 21.95 65.2916 22.1074C65.2916 22.2228 65.1827 22.2968 64.9904 22.2968C64.7951 22.2968 64.6602 22.2133 64.6312 22.0239H64.2276C64.253 22.3731 64.5193 22.6045 64.9969 22.6045ZM67.3452 22.556V20.9114H66.909V21.8606C66.909 22.0784 66.7836 22.2323 66.5788 22.2323C66.393 22.2323 66.306 22.1263 66.306 21.934V20.9114H65.8734V22.008C65.8734 22.3672 66.0787 22.601 66.4439 22.601C66.6747 22.601 66.8031 22.5146 66.9155 22.3642H66.925V22.556H67.3452ZM67.6269 22.556H68.0631V21.6014C68.0631 21.383 68.1814 21.2422 68.3578 21.2422C68.5182 21.2422 68.6111 21.3386 68.6111 21.5245V22.5566H69.0472V21.6014C69.0472 21.383 69.1597 21.2422 69.3425 21.2422C69.5029 21.2422 69.5958 21.3386 69.5958 21.5245V22.5566H70.032V21.4505C70.032 21.0913 69.8361 20.867 69.4899 20.867C69.2816 20.867 69.1082 20.9759 68.9963 21.1558H68.9898C68.9503 21.0684 68.8861 20.9945 68.8052 20.9432C68.7242 20.8919 68.63 20.8654 68.5341 20.867C68.438 20.8646 68.3429 20.888 68.2589 20.9348C68.1749 20.9817 68.105 21.0502 68.0565 21.1333H68.0471V20.9119H67.6269V22.5572V22.556Z" fill="#3D3A34"/>
<path d="M70.118 1.84656C70.118 1.14646 70.6855 0.578321 71.3856 0.578321H72.2313C72.5677 0.578321 72.8903 0.711939 73.1281 0.94978C73.366 1.18762 73.4996 1.5102 73.4996 1.84656C73.4996 2.18292 73.366 2.5055 73.1281 2.74334C72.8903 2.98119 72.5677 3.1148 72.2313 3.1148H71.3856C71.2191 3.1148 71.0542 3.08199 70.9004 3.01825C70.7466 2.95451 70.6068 2.86108 70.4891 2.74331C70.3713 2.62553 70.278 2.48572 70.2143 2.33185C70.1506 2.17799 70.1179 2.01308 70.118 1.84656ZM34.6149 9.03168C34.6149 13.6999 30.8309 17.4845 26.1622 17.4845C21.494 17.4845 17.7094 13.6999 17.7094 9.03168C17.7094 4.36233 21.494 0.578913 26.1622 0.578913C30.8309 0.578913 34.6149 4.36233 34.6149 9.03168ZM16.0606 8.98966C16.5282 8.98966 16.9105 9.36842 16.8637 9.83358C16.7039 11.4254 16.0957 12.9393 15.1096 14.1991C14.1236 15.459 12.8003 16.4132 11.2935 16.9507C9.78662 17.4883 8.15817 17.5872 6.59735 17.236C5.03654 16.8847 3.60745 16.0977 2.47619 14.9664C1.34492 13.8352 0.55793 12.4061 0.206675 10.8453C-0.14458 9.28446 -0.0456738 7.656 0.491899 6.14917C1.02947 4.64234 1.98364 3.31901 3.2435 2.33297C4.50336 1.34694 6.01719 0.738686 7.60904 0.578913C8.07361 0.531568 8.45296 0.915059 8.45296 1.3814V8.14397C8.45296 8.6115 8.83171 8.98966 9.29865 8.98966H16.0606ZM46.4493 19.1752C47.1218 19.1752 47.7669 19.4424 48.2424 19.918C48.718 20.3936 48.9852 21.0386 48.9852 21.7111C48.9852 22.3837 48.718 23.0287 48.2424 23.5043C47.7669 23.9799 47.1218 24.247 46.4493 24.247H42.2232C41.5506 24.247 40.9056 23.9799 40.4301 23.5043C39.9545 23.0287 39.6873 22.3837 39.6873 21.7111C39.6873 21.0386 39.9545 20.3936 40.4301 19.918C40.9056 19.4424 41.5506 19.1752 42.2232 19.1752H46.4493ZM43.9134 17.4845C48.5822 17.4845 52.3668 13.6999 52.3668 9.03168C52.3688 7.5977 52.0043 6.187 51.308 4.93342L52.7047 3.53676C52.8656 3.37581 52.9932 3.18475 53.0802 2.97448C53.1672 2.76422 53.212 2.53887 53.2119 2.3113C53.2119 2.08374 53.167 1.85841 53.0799 1.64819C52.9927 1.43797 52.865 1.24697 52.7041 1.08609C52.5431 0.925217 52.3521 0.797619 52.1418 0.710584C51.9315 0.623549 51.7062 0.578781 51.4786 0.578836C51.2511 0.578891 51.0257 0.623768 50.8155 0.710905C50.6053 0.798041 50.4143 0.925731 50.2534 1.08668L49.0343 2.3058C47.5635 1.1825 45.7635 0.575343 43.9128 0.578321C39.2452 0.578913 35.4612 4.36233 35.4612 9.03168C35.4612 13.6999 39.2452 17.4845 43.9134 17.4845ZM70.118 9.03168C70.118 13.6999 66.3334 17.4845 61.6646 17.4845C56.9965 17.4845 53.2119 13.6999 53.2119 9.03168C53.2119 4.36233 56.9965 0.578913 61.6646 0.578913C66.3334 0.578913 70.118 4.36292 70.118 9.03168Z" fill="#3D3A34"/>
</g>
<defs>
<clipPath id="clip0_470_1488">
<rect width="73.9758" height="23.6723" fill="white" transform="translate(0 0.574707)"/>
</clipPath>
</defs>
</svg>
