<svg width="109" height="21" viewBox="0 0 109 21" fill="none" xmlns="http://www.w3.org/2000/svg">
<g clip-path="url(#clip0_470_1492)">
<path d="M26.8168 1.43726H29.5203V16.1834H33.9687V18.6412H26.8168V1.43726Z" fill="#3D3A34"/>
<path d="M39.0769 18.8871C37.7498 18.8871 36.734 18.5103 36.0294 17.7565C35.3249 17.0028 34.9726 15.9379 34.9726 14.5615V5.51721C34.9726 4.14089 35.3249 3.07589 36.0294 2.3222C36.734 1.5685 37.7498 1.19165 39.0769 1.19165C40.4041 1.19165 41.4199 1.5685 42.1245 2.3222C42.829 3.07589 43.1813 4.14089 43.1813 5.51721V14.5615C43.1813 15.9379 42.829 17.0028 42.1245 17.7565C41.4199 18.5103 40.4041 18.8871 39.0769 18.8871ZM39.0769 16.4294C40.0109 16.4294 40.4778 15.8641 40.4778 14.7335V5.34516C40.4778 4.21462 40.0109 3.64935 39.0769 3.64935C38.143 3.64935 37.676 4.21462 37.676 5.34516V14.7335C37.676 15.8641 38.143 16.4294 39.0769 16.4294Z" fill="#3D3A34"/>
<path d="M48.8436 18.8871C47.5328 18.8871 46.5333 18.5184 45.8451 17.7811C45.157 17.0275 44.8129 15.9542 44.8129 14.5615V5.51721C44.8129 4.12451 45.157 3.0595 45.8451 2.3222C46.5333 1.5685 47.5328 1.19165 48.8436 1.19165C50.1543 1.19165 51.1538 1.5685 51.8419 2.3222C52.5301 3.0595 52.8742 4.12451 52.8742 5.51721V6.99182H50.3182V5.34516C50.3182 4.21462 49.8512 3.64935 48.9173 3.64935C47.9834 3.64935 47.5164 4.21462 47.5164 5.34516V14.7582C47.5164 15.8723 47.9834 16.4294 48.9173 16.4294C49.8512 16.4294 50.3182 15.8723 50.3182 14.7582V11.3911H48.9665V8.93342H52.8742V14.5615C52.8742 15.9542 52.5301 17.0275 51.8419 17.7811C51.1538 18.5184 50.1543 18.8871 48.8436 18.8871Z" fill="#3D3A34"/>
<path d="M58.5177 18.8871C57.1905 18.8871 56.1747 18.5103 55.4702 17.7565C54.7656 17.0028 54.4133 15.9379 54.4133 14.5615V5.51721C54.4133 4.14089 54.7656 3.07589 55.4702 2.3222C56.1747 1.5685 57.1905 1.19165 58.5177 1.19165C59.8449 1.19165 60.8607 1.5685 61.5652 2.3222C62.2698 3.07589 62.6221 4.14089 62.6221 5.51721V14.5615C62.6221 15.9379 62.2698 17.0028 61.5652 17.7565C60.8607 18.5103 59.8449 18.8871 58.5177 18.8871ZM58.5177 16.4294C59.4516 16.4294 59.9186 15.8641 59.9186 14.7335V5.34516C59.9186 4.21462 59.4516 3.64935 58.5177 3.64935C57.5838 3.64935 57.1168 4.21462 57.1168 5.34516V14.7335C57.1168 15.8641 57.5838 16.4294 58.5177 16.4294Z" fill="#3D3A34"/>
<path d="M64.4556 1.43726H67.1591V18.6412H64.4556V1.43726Z" fill="#3D3A34"/>
<path d="M69.1836 1.43726H73.165C74.5084 1.43726 75.5161 1.79772 76.1882 2.51865C76.8602 3.23957 77.1959 4.29638 77.1959 5.68908V7.38488C77.1959 8.7776 76.8602 9.83438 76.1882 10.5553C75.5161 11.2762 74.5084 11.6367 73.165 11.6367H71.8873V18.6412H69.1836V1.43726ZM73.165 9.179C73.6076 9.179 73.9352 9.0561 74.1484 8.81036C74.3778 8.56456 74.4922 8.14679 74.4922 7.55691V5.51704C74.4922 4.92719 74.3778 4.50938 74.1484 4.26361C73.9352 4.01784 73.6076 3.89496 73.165 3.89496H71.8873V9.179H73.165Z" fill="#3D3A34"/>
<path d="M82.2743 18.8871C80.9641 18.8871 79.9726 18.5184 79.3006 17.7811C78.6292 17.0275 78.2928 15.9542 78.2928 14.5615V13.5784H80.849V14.7582C80.849 15.8723 81.316 16.4294 82.2499 16.4294C82.7088 16.4294 83.0526 16.2983 83.282 16.0362C83.5277 15.7576 83.6508 15.3152 83.6508 14.709C83.6508 13.9881 83.4871 13.3573 83.1595 12.8166C82.8319 12.2595 82.2256 11.5959 81.3403 10.8258C80.2264 9.84273 79.4481 8.95799 79.0055 8.17152C78.5636 7.36867 78.3422 6.46751 78.3422 5.46805C78.3422 4.10812 78.686 3.0595 79.3743 2.3222C80.0626 1.5685 81.0622 1.19165 82.3731 1.19165C83.6671 1.19165 84.6423 1.5685 85.2974 2.3222C85.9694 3.0595 86.3051 4.12451 86.3051 5.51721V6.22994H83.749V5.34516C83.749 4.75532 83.6346 4.32931 83.4052 4.06716C83.1757 3.78862 82.8401 3.64935 82.3975 3.64935C81.496 3.64935 81.0459 4.19824 81.0459 5.29601C81.0459 5.91862 81.2097 6.50028 81.5373 7.04097C81.8811 7.58164 82.4956 8.23703 83.3808 9.00713C84.511 9.9902 85.2893 10.8832 85.7157 11.6861C86.1413 12.4889 86.3545 13.431 86.3545 14.5124C86.3545 15.9215 86.0019 17.0028 85.2974 17.7565C84.6091 18.5103 83.6014 18.8871 82.2743 18.8871Z" fill="#3D3A34"/>
<path d="M91.8371 18.8869C90.5262 18.8869 89.5266 18.5183 88.8383 17.7809C88.1501 17.0273 87.8063 15.9541 87.8063 14.5613V1.43726H90.51V14.758C90.51 15.3478 90.6243 15.7738 90.8538 16.036C91.0994 16.2981 91.4439 16.4292 91.8858 16.4292C92.3285 16.4292 92.6641 16.2981 92.8936 16.036C93.1392 15.7738 93.2624 15.3478 93.2624 14.758V1.43726H95.8673V14.5613C95.8673 15.9541 95.5235 17.0273 94.8352 17.7809C94.1469 18.5183 93.1473 18.8869 91.8371 18.8869Z" fill="#3D3A34"/>
<path d="M97.7927 1.43726H101.652L103.372 13.7503H103.421L105.142 1.43726H109V18.6412H106.444V5.61535H106.395L104.428 18.6412H102.167L100.201 5.61535H100.153V18.6412H97.7927V1.43726Z" fill="#3D3A34"/>
<path d="M0.716797 18.6411C4.04277 18.6411 6.73897 15.9448 6.73897 12.6189C6.73897 9.2929 4.04277 6.59668 0.716797 6.59668V10.8122C1.71458 10.8122 2.52344 11.6211 2.52344 12.6189C2.52344 13.6167 1.71458 14.4255 0.716797 14.4255V18.6411Z" fill="#3D3A34"/>
<path d="M20.7907 8.60419C19.7616 8.27819 18.6657 8.10229 17.5287 8.10229C11.5696 8.10229 6.73895 12.9331 6.73895 18.892C6.73895 19.4902 6.78763 20.0769 6.8812 20.6485H13.5852C13.3459 20.112 13.2128 19.5176 13.2128 18.892C13.2128 16.5085 15.1451 14.5761 17.5287 14.5761C18.8315 14.5761 19.9994 15.1534 20.7907 16.066V8.60419Z" fill="#3D3A34"/>
<path d="M1.77557 0.574707C2.27485 5.09129 6.10405 8.60431 10.7537 8.60431C15.4033 8.60431 19.2326 5.09129 19.7318 0.574707H13.2717C12.8729 1.5745 11.8958 2.28099 10.7537 2.28099C9.61161 2.28099 8.63456 1.5745 8.23567 0.574707H1.77557Z" fill="#3D3A34"/>
</g>
<defs>
<clipPath id="clip0_470_1492">
<rect width="108.283" height="20.3031" fill="white" transform="translate(0.716797 0.574707)"/>
</clipPath>
</defs>
</svg>
