<svg width="60" height="25" viewBox="0 0 60 25" fill="none" xmlns="http://www.w3.org/2000/svg">
<g clip-path="url(#clip0_470_1505)">
<path d="M2.94189 3.16908C3.09501 2.44236 3.81937 1.85287 4.55727 1.85287H8.56891L5.23275 17.6492H1.2211C0.48261 17.6492 0.00794997 17.0603 0.161655 16.3329L2.94189 3.16908ZM16.3142 3.16908C16.4679 2.44236 17.1917 1.85287 17.9296 1.85287H21.9413L18.6051 17.6492H14.5934C13.855 17.6492 13.3803 17.0603 13.534 16.3329L16.3142 3.16908ZM43.0595 3.16908C43.2126 2.44236 43.9358 1.85287 44.6749 1.85287H48.6865L45.3504 17.6492H41.3381C40.5996 17.6492 40.1256 17.0603 40.2793 16.3329L43.0595 3.16908ZM23.2787 1.85287H27.2903C28.0288 1.85287 28.5035 2.44177 28.3498 3.16908L25.5695 16.3329C25.4164 17.0603 24.6926 17.6492 23.9542 17.6492H19.9425L23.2787 1.85287ZM50.024 1.85287H54.0356C54.7741 1.85287 55.2487 2.44177 55.095 3.16908L52.3142 16.3329C52.1611 17.0603 51.4379 17.6492 50.6994 17.6492H46.6872L50.024 1.85287ZM29.6872 3.16908C29.8403 2.44236 30.5635 1.85287 31.302 1.85287H35.3142L31.9774 17.6492H27.9658C27.2273 17.6492 26.7526 17.0603 26.9069 16.3329L29.6866 3.16908H29.6872ZM36.651 1.85287H40.6632C41.4017 1.85287 41.8758 2.44177 41.7221 3.16908L37.552 22.9152C37.3978 23.6419 36.6746 24.2314 35.9361 24.2314H31.9239L36.651 1.85287ZM7.68202 12.3837H13.0311L12.1972 16.3329C12.0435 17.0603 11.3197 17.6492 10.5818 17.6492H6.56957L7.68143 12.3843L7.68202 12.3837ZM26.351 18.966H31.6995L30.5876 24.2314H26.576C25.8369 24.2314 25.3628 23.6425 25.5165 22.9152L26.351 18.966ZM40.87 20.1903L40.1927 23.3975C40.1633 23.5353 40.1173 23.573 39.9772 23.573H39.6692C39.529 23.573 39.4984 23.5353 39.5278 23.3975L40.2051 20.1903C40.2345 20.0531 40.2805 20.0148 40.4206 20.0148H40.7286C40.8688 20.0148 40.8994 20.0531 40.87 20.1903ZM41.7604 22.354H41.6974C41.6302 22.354 41.6067 22.3728 41.5931 22.4393L41.3906 23.3975C41.3611 23.5353 41.3146 23.573 41.175 23.573H40.8664C40.7269 23.573 40.6962 23.5353 40.7251 23.3975L41.4023 20.1903C41.4318 20.0531 41.4789 20.0148 41.6185 20.0148H42.2545C42.9871 20.0148 43.2645 20.2757 43.129 20.9158L43.0159 21.4523C42.8805 22.0931 42.493 22.354 41.7604 22.354ZM41.9465 20.7645L41.7698 21.6043C41.7551 21.6708 41.7704 21.6897 41.8381 21.6897H41.9394C42.175 21.6897 42.3016 21.5948 42.3528 21.3528L42.4235 21.016C42.4747 20.7745 42.3888 20.6791 42.1526 20.6791H42.0513C41.9842 20.6791 41.9606 20.6979 41.9465 20.7645ZM44.1478 21.2815L44.6484 21.8322C44.911 22.1166 44.9476 22.2874 44.8804 22.6054L44.8628 22.6908C44.7361 23.2885 44.4346 23.6207 43.7356 23.6207C43.0371 23.6207 42.8646 23.341 43.026 22.5766L43.046 22.4823C43.0754 22.3445 43.1219 22.3062 43.2615 22.3062H43.5889C43.7291 22.3062 43.7597 22.3445 43.7303 22.4817L43.6861 22.6908C43.6461 22.8804 43.7073 22.9564 43.8757 22.9564C44.0448 22.9564 44.1366 22.8857 44.1731 22.715L44.192 22.6243C44.2203 22.4912 44.2049 22.4252 44.0601 22.2686L43.5889 21.7609C43.3251 21.4812 43.2915 21.3192 43.3587 21.0012L43.3805 20.8976C43.5071 20.2998 43.8086 19.9671 44.5071 19.9671C45.2061 19.9671 45.3786 20.2474 45.2173 21.0112L45.1973 21.1061C45.1678 21.2439 45.1213 21.2815 44.9817 21.2815H44.6537C44.5141 21.2815 44.4835 21.2439 44.5124 21.1061L44.5565 20.8976C44.5966 20.7074 44.5359 20.632 44.3669 20.632C44.1985 20.632 44.106 20.7027 44.0701 20.8734L44.053 20.9541C44.0236 21.0919 44.0389 21.1585 44.1478 21.2815ZM46.9699 20.1903C46.9993 20.0531 47.0453 20.0148 47.1854 20.0148H47.4934C47.6336 20.0148 47.6642 20.0531 47.6348 20.1903L47.1306 22.5771C46.9693 23.341 46.6789 23.6207 45.9799 23.6207C45.2815 23.6207 45.1089 23.341 45.2703 22.5766L45.7744 20.1903C45.8038 20.0531 45.8504 20.0148 45.9899 20.0148H46.2985C46.4381 20.0148 46.4687 20.0531 46.4399 20.1903L45.9116 22.6908C45.8716 22.8804 45.9375 22.9564 46.1207 22.9564C46.2985 22.9564 46.4016 22.8804 46.4416 22.6908L46.9699 20.1903ZM48.9757 22.1213C48.9775 22.1596 48.9898 22.1684 49.014 22.1684C49.0375 22.1684 49.0546 22.1596 49.0723 22.1213L49.905 20.1385C49.9456 20.0384 49.9939 20.0148 50.1146 20.0148H50.5822C50.7218 20.0148 50.7524 20.0531 50.7236 20.1903L50.0463 23.3975C50.0169 23.5353 49.9698 23.573 49.8302 23.573H49.6088C49.4692 23.573 49.438 23.5353 49.4674 23.3975L49.7925 21.8604C49.8013 21.818 49.7937 21.808 49.7648 21.808C49.7454 21.808 49.7236 21.818 49.7118 21.851L49.0393 23.4169C48.991 23.5306 48.9292 23.573 48.7896 23.573H48.6589C48.514 23.573 48.4704 23.5306 48.4704 23.4169L48.4539 21.8504C48.451 21.8175 48.4433 21.808 48.4192 21.808C48.3903 21.808 48.3785 21.818 48.3697 21.8604L48.0452 23.3975C48.0158 23.5353 47.9698 23.573 47.8297 23.573H47.6082C47.4681 23.573 47.4375 23.5353 47.4669 23.3975L48.1442 20.1903C48.1736 20.0531 48.2201 20.0148 48.3597 20.0148H48.7602C48.9286 20.0148 48.9828 20.0531 48.9816 20.2192L48.9751 22.1213H48.9757ZM59.0237 1.85287C59.0237 2.50361 58.4995 3.03068 57.8535 3.03068C57.6993 3.03022 57.5467 2.99938 57.4045 2.93993C57.2622 2.88048 57.1331 2.79359 57.0244 2.68421C56.9157 2.57483 56.8297 2.44512 56.7712 2.30247C56.7126 2.15982 56.6828 2.00705 56.6833 1.85287C56.6833 1.20212 57.2075 0.675049 57.8535 0.675049C58.4995 0.675049 59.0237 1.20212 59.0237 1.85287Z" fill="#3D3A34"/>
</g>
<defs>
<clipPath id="clip0_470_1505">
<rect width="58.8909" height="23.5563" fill="white" transform="translate(0.132751 0.675049)"/>
</clipPath>
</defs>
</svg>
