<svg width="289" height="36" viewBox="0 0 289 36" fill="none" xmlns="http://www.w3.org/2000/svg">
<path d="M46.7299 12.0549C46.7299 8.28342 49.7714 5.72852 54.3033 5.72852C58.5006 5.72852 61.2076 8.07051 61.4509 11.8724H58.4398C58.2877 9.68253 56.7365 8.40508 54.2729 8.40508C51.5051 8.40508 49.7106 9.80419 49.7106 11.9637C49.7106 13.7278 50.7143 14.7923 52.7825 15.279L56.402 16.1306C59.991 16.9518 61.8159 18.8984 61.8159 22.0008C61.8159 25.9548 58.744 28.4793 54.06 28.4793C49.5889 28.4793 46.6082 26.1373 46.4257 22.3658H49.4673C49.5281 24.4644 51.2922 25.8027 54.06 25.8027C56.9799 25.8027 58.8352 24.434 58.8352 22.2441C58.8352 20.5104 57.8923 19.4155 55.7937 18.9288L52.1742 18.1076C48.5852 17.2864 46.7299 15.2181 46.7299 12.0549Z" fill="#DAFAA1"/>
<path d="M75.3553 13.2411H78.184V28.1143H75.6291L75.3249 25.8636C74.4733 27.4147 72.4963 28.4793 70.3064 28.4793C66.839 28.4793 64.8924 26.1373 64.8924 22.4874V13.2411H67.7515V21.5446C67.7515 24.7382 69.1202 25.9548 71.3101 25.9548C73.9258 25.9548 75.3553 24.282 75.3553 21.0883V13.2411Z" fill="#DAFAA1"/>
<path d="M80.8185 23.7953H83.5559C83.5559 25.3161 84.7117 26.2285 86.5974 26.2285C88.6048 26.2285 89.7606 25.4073 89.7606 24.0386C89.7606 23.0349 89.274 22.4266 87.7228 22.0312L85.1071 21.4229C82.4609 20.7842 81.2139 19.4763 81.2139 17.2864C81.2139 14.549 83.5254 12.8153 86.8103 12.8153C90.0648 12.8153 92.1939 14.6402 92.2547 17.4689H89.5173C89.4565 15.9785 88.4528 15.0357 86.7191 15.0357C84.9246 15.0357 83.9208 15.8265 83.9208 17.1951C83.9208 18.1989 84.6508 18.868 86.1108 19.233L88.7265 19.8717C91.251 20.48 92.498 21.6358 92.498 23.8561C92.498 26.6848 90.0648 28.4793 86.5366 28.4793C83.0388 28.4793 80.8185 26.6239 80.8185 23.7953Z" fill="#DAFAA1"/>
<path d="M99.8659 28.1143H97.0069V15.644H94.087V13.2411H97.0069V8.58757H99.8659V13.2411H102.786V15.644H99.8659V28.1143Z" fill="#DAFAA1"/>
<path d="M109.523 28.4793C106.329 28.4793 104.443 26.6848 104.443 23.9778C104.443 21.2404 106.481 19.5371 109.979 19.2634L114.663 18.8984V18.4726C114.663 15.9785 113.173 15.0965 111.165 15.0965C108.762 15.0965 107.394 16.161 107.394 17.9555H104.9C104.9 14.8532 107.455 12.8153 111.287 12.8153C114.967 12.8153 117.461 14.7619 117.461 18.7768V28.1143H115.028L114.724 25.7115C113.963 27.4147 111.926 28.4793 109.523 28.4793ZM110.344 26.259C113.051 26.259 114.693 24.4949 114.693 21.6966V20.9058L110.892 21.21C108.367 21.4533 107.333 22.4266 107.333 23.8866C107.333 25.4682 108.489 26.259 110.344 26.259Z" fill="#DAFAA1"/>
<path d="M122.82 9.71294C121.786 9.71294 120.934 8.86131 120.934 7.82718C120.934 6.76264 121.786 5.94142 122.82 5.94142C123.854 5.94142 124.706 6.76264 124.706 7.82718C124.706 8.86131 123.854 9.71294 122.82 9.71294ZM121.421 28.1143V13.2411H124.28V28.1143H121.421Z" fill="#DAFAA1"/>
<path d="M131.29 28.1143H128.431V13.2411H131.016L131.32 15.5223C132.263 13.819 134.149 12.8153 136.247 12.8153C140.171 12.8153 141.965 15.2181 141.965 19.0201V28.1143H139.106V19.6588C139.106 16.6477 137.707 15.4311 135.517 15.4311C132.841 15.4311 131.29 17.3472 131.29 20.2367V28.1143Z" fill="#DAFAA1"/>
<path d="M150.275 28.4793C147.081 28.4793 145.195 26.6848 145.195 23.9778C145.195 21.2404 147.233 19.5371 150.731 19.2634L155.415 18.8984V18.4726C155.415 15.9785 153.925 15.0965 151.917 15.0965C149.514 15.0965 148.146 16.161 148.146 17.9555H145.652C145.652 14.8532 148.207 12.8153 152.039 12.8153C155.719 12.8153 158.213 14.7619 158.213 18.7768V28.1143H155.78L155.476 25.7115C154.715 27.4147 152.678 28.4793 150.275 28.4793ZM151.096 26.259C153.803 26.259 155.445 24.4949 155.445 21.6966V20.9058L151.644 21.21C149.119 21.4533 148.085 22.4266 148.085 23.8866C148.085 25.4682 149.241 26.259 151.096 26.259Z" fill="#DAFAA1"/>
<path d="M164.758 28.1143H162.173V5.72852H165.032V15.796C166.005 13.8494 168.012 12.8153 170.446 12.8153C174.704 12.8153 177.259 16.161 177.259 20.7538C177.259 25.2552 174.582 28.4793 170.263 28.4793C167.921 28.4793 165.944 27.4452 164.971 25.4073L164.758 28.1143ZM165.062 20.6321C165.062 23.7345 166.826 25.894 169.746 25.894C172.666 25.894 174.4 23.7041 174.4 20.6321C174.4 17.5906 172.666 15.4006 169.746 15.4006C166.826 15.4006 165.062 17.5906 165.062 20.6321Z" fill="#DAFAA1"/>
<path d="M181.809 9.71294C180.775 9.71294 179.923 8.86131 179.923 7.82718C179.923 6.76264 180.775 5.94142 181.809 5.94142C182.843 5.94142 183.695 6.76264 183.695 7.82718C183.695 8.86131 182.843 9.71294 181.809 9.71294ZM180.41 28.1143V13.2411H183.269V28.1143H180.41Z" fill="#DAFAA1"/>
<path d="M190.34 28.1143H187.481V5.72852H190.34V28.1143Z" fill="#DAFAA1"/>
<path d="M195.948 9.71294C194.914 9.71294 194.062 8.86131 194.062 7.82718C194.062 6.76264 194.914 5.94142 195.948 5.94142C196.982 5.94142 197.833 6.76264 197.833 7.82718C197.833 8.86131 196.982 9.71294 195.948 9.71294ZM194.549 28.1143V13.2411H197.408V28.1143H194.549Z" fill="#DAFAA1"/>
<path d="M205.756 28.1143H202.897V15.644H199.977V13.2411H202.897V8.58757H205.756V13.2411H208.676V15.644H205.756V28.1143Z" fill="#DAFAA1"/>
<path d="M209.812 34.7753V32.4333H211.728C213.097 32.4333 214.192 32.2204 214.891 30.3346L215.408 28.9051L209.416 13.2411H212.428L216.747 25.2248L221.157 13.2411H224.107L217.081 31.46C216.077 34.0149 214.587 35.0794 212.306 35.0794C211.363 35.0794 210.572 34.9578 209.812 34.7753Z" fill="#DAFAA1"/>
<path d="M238.174 28.1143H235.193V6.12392H238.174V15.5831H249.063V6.12392H252.043V28.1143H249.063V18.3509H238.174V28.1143Z" fill="#DAFAA1"/>
<path d="M266.937 13.2411H269.766V28.1143H267.211L266.907 25.8636C266.055 27.4147 264.078 28.4793 261.888 28.4793C258.421 28.4793 256.474 26.1373 256.474 22.4874V13.2411H259.333V21.5446C259.333 24.7382 260.702 25.9548 262.892 25.9548C265.508 25.9548 266.937 24.282 266.937 21.0883V13.2411Z" fill="#DAFAA1"/>
<path d="M276.499 28.1143H273.914V5.72852H276.773V15.796C277.746 13.8494 279.754 12.8153 282.187 12.8153C286.445 12.8153 289 16.161 289 20.7538C289 25.2552 286.323 28.4793 282.004 28.4793C279.662 28.4793 277.685 27.4452 276.712 25.4073L276.499 28.1143ZM276.803 20.6321C276.803 23.7345 278.567 25.894 281.487 25.894C284.407 25.894 286.141 23.7041 286.141 20.6321C286.141 17.5906 284.407 15.4006 281.487 15.4006C278.567 15.4006 276.803 17.5906 276.803 20.6321Z" fill="#DAFAA1"/>
<g clip-path="url(#clip0_470_1630)">
<path d="M16.4976 9.6385C16.1549 6.70161 15.7931 3.6007 15.7931 0H19.0262C19.0262 3.56025 18.6661 6.65722 18.3238 9.59741C18.045 11.9935 17.7783 14.2855 17.7288 16.6393C19.3522 14.9459 20.7723 13.1504 22.26 11.2695C24.0942 8.95056 26.0312 6.50202 28.5771 3.95603L30.8633 6.24226C28.3458 8.75975 25.9009 10.6948 23.58 12.532L23.5778 12.5336C21.6873 14.0303 19.8788 15.4618 18.18 17.0905C20.5251 17.041 22.7989 16.7757 25.1806 16.4977C28.1175 16.1549 31.2186 15.7931 34.8193 15.7931V19.0262C31.2592 19.0262 28.1622 18.6659 25.2221 18.3238L25.22 18.3236C22.8244 18.0449 20.5331 17.7784 18.18 17.7288C19.8722 19.351 21.6668 20.7705 23.5464 22.2571L23.5494 22.2596C25.8685 24.094 28.3171 26.0308 30.8633 28.5771L28.5771 30.8633C26.0595 28.3459 24.1245 25.9012 22.2876 23.5804L22.2833 23.5744L22.2796 23.5696C20.7849 21.6821 19.3551 19.8764 17.7288 18.18C17.7783 20.5338 18.045 22.8258 18.3238 25.2219C18.6661 28.1621 19.0262 31.259 19.0262 34.8193H15.7931C15.7931 31.2186 16.1549 28.1177 16.4976 25.1808L16.4983 25.176C16.7759 22.7959 17.041 20.5235 17.0905 18.18C15.4642 19.8764 14.0343 21.6821 12.5396 23.5696L12.536 23.5744L12.5316 23.5804C10.6947 25.9012 8.75975 28.3459 6.24226 30.8633L3.95603 28.5771C6.50214 26.0308 8.95082 24.094 11.2699 22.2596L11.2728 22.2571C13.1525 20.7705 14.947 19.351 16.6393 17.7288C14.2855 17.7785 11.9934 18.0451 9.59715 18.3238C6.6571 18.6659 3.56013 19.0262 0 19.0262V15.7931C3.6007 15.7931 6.70179 16.1549 9.63867 16.4977C12.0204 16.7757 14.2942 17.041 16.6393 17.0905C14.9398 15.4612 13.1306 14.0292 11.2393 12.532C8.91835 10.6948 6.47348 8.75975 3.95603 6.24226L6.24226 3.95603C8.78813 6.50202 10.7251 8.95056 12.5593 11.2695C14.047 13.1503 15.4671 14.9458 17.0905 16.6391C17.041 14.2957 16.7759 12.0234 16.4983 9.64329L16.4976 9.6385Z" fill="#DAFAA1"/>
</g>
<defs>
<clipPath id="clip0_470_1630">
<rect width="34.8193" height="34.8193" fill="white"/>
</clipPath>
</defs>
</svg>
