<svg width="108" height="108" viewBox="0 0 108 108" fill="none" xmlns="http://www.w3.org/2000/svg">
<path d="M51.1712 29.896C50.1082 20.7866 48.9858 11.1684 48.9858 0H59.0142C59.0142 11.0429 57.8972 20.6489 56.8355 29.7686C55.9707 37.2006 55.1435 44.3097 54.9898 51.6105C60.0253 46.3582 64.4301 40.7889 69.0444 34.955C74.7336 27.7622 80.7416 20.1675 88.6383 12.2705L95.7296 19.3618C87.9209 27.1704 80.3377 33.1725 73.1387 38.8708L73.1319 38.876C67.2681 43.5181 61.6586 47.9585 56.3895 53.0102C63.6633 52.8566 70.716 52.0336 78.1034 51.1715C87.213 50.1082 96.8317 48.9858 108 48.9858V59.0142C96.9575 59.0142 87.3515 57.8966 78.2322 56.8355L78.2255 56.835C70.7951 55.9705 63.6881 55.1437 56.3895 54.9898C61.6383 60.0215 67.2046 64.4244 73.0347 69.0355L73.0439 69.0433C80.237 74.733 87.8321 80.7405 95.7296 88.6383L88.6383 95.7296C80.8296 87.9212 74.8278 80.3385 69.1303 73.14L69.1168 73.1214L69.1054 73.1066C64.4693 67.2519 60.0342 61.6513 54.9898 56.3895C55.1435 63.6903 55.9707 70.7994 56.8355 78.2314C57.8972 87.3512 59.0142 96.957 59.0142 108H48.9858C48.9858 96.8317 50.1082 87.2135 51.1712 78.104L51.1734 78.0891C52.0344 70.7068 52.8566 63.6584 53.0102 56.3895C47.9658 61.6513 43.5308 67.2519 38.8946 73.1066L38.8832 73.1214L38.8697 73.14C33.1722 80.3385 27.1704 87.9212 19.3618 95.7296L12.2705 88.6383C20.1679 80.7405 27.763 74.733 34.9561 69.0433L34.9653 69.0355C40.7954 64.4244 46.3617 60.0215 51.6105 54.9898C44.3097 55.144 37.2003 55.971 29.7678 56.8355C20.6485 57.8966 11.0426 59.0142 0 59.0142V48.9858C11.1684 48.9858 20.7871 50.1082 29.8966 51.1715C37.284 52.0336 44.3367 52.8566 51.6105 53.0102C46.3393 47.9566 40.7276 43.5148 34.8613 38.8708C27.6623 33.1725 20.079 27.1704 12.2705 19.3618L19.3618 12.2705C27.2584 20.1675 33.2664 27.7622 38.9556 34.955C43.5699 40.7886 47.9747 46.3579 53.0102 51.61C52.8566 44.3413 52.0344 37.2932 51.1734 29.9109L51.1712 29.896Z" fill="#3D3A34"/>
</svg>
