<svg width="257" height="263" viewBox="0 0 257 263" fill="none" xmlns="http://www.w3.org/2000/svg">
<path d="M249.223 145.605C244.046 101.238 238.579 54.3942 238.579 0H287.421C287.421 53.7832 281.981 100.568 276.81 144.984C272.598 181.181 268.569 215.805 267.821 251.362C292.346 225.782 313.798 198.657 336.272 170.244C363.98 135.212 393.242 98.2233 431.701 59.762L466.238 94.2992C428.207 132.33 391.274 161.562 356.212 189.315L356.18 189.34C327.62 211.949 300.3 233.576 274.638 258.179C310.064 257.431 344.413 253.423 380.393 249.224C424.759 244.046 471.606 238.579 526 238.579V287.421C472.219 287.421 425.434 281.978 381.02 276.81L380.987 276.807C344.798 272.597 310.185 268.57 274.638 267.821C300.201 292.327 327.311 313.771 355.706 336.228L355.751 336.267C390.784 363.978 427.775 393.236 466.238 431.701L431.701 466.238C393.67 428.209 364.439 391.278 336.69 356.219L336.624 356.128L336.569 356.056C313.989 327.542 292.389 300.264 267.821 274.638C268.569 310.195 272.598 344.819 276.81 381.016C281.981 425.433 287.421 472.216 287.421 526H238.579C238.579 471.606 244.046 424.762 249.223 380.395L249.233 380.323C253.427 344.368 257.431 310.04 258.179 274.638C233.611 300.264 212.011 327.542 189.431 356.056L189.376 356.128L189.31 356.219C161.561 391.278 132.33 428.209 94.2992 466.238L59.762 431.701C98.2251 393.236 135.216 363.978 170.249 336.267L170.294 336.228C198.689 313.771 225.799 292.327 251.362 267.821C215.805 268.572 181.179 272.599 144.98 276.81C100.566 281.978 53.7814 287.421 0 287.421V238.579C54.3942 238.579 101.241 244.046 145.607 249.224C181.587 253.423 215.936 257.431 251.362 258.179C225.689 233.566 198.359 211.933 169.788 189.315C134.726 161.562 97.7921 132.33 59.762 94.2992L94.2992 59.762C132.758 98.2233 162.02 135.212 189.728 170.244C212.202 198.656 233.654 225.78 258.179 251.36C257.431 215.958 253.427 181.632 249.233 145.677L249.223 145.605Z" fill="#DAFAA1"/>
</svg>
