<svg width="60" height="25" viewBox="0 0 60 25" fill="none" xmlns="http://www.w3.org/2000/svg">
<g clip-path="url(#clip0_470_2274)">
<path d="M2.94195 3.16883C3.09507 2.44212 3.81943 1.85262 4.55733 1.85262H8.56897L5.23281 17.6489H1.22116C0.482671 17.6489 0.00801101 17.06 0.161716 16.3327L2.94195 3.16883ZM16.3143 3.16883C16.468 2.44212 17.1918 1.85262 17.9297 1.85262H21.9413L18.6052 17.6489H14.5935C13.855 17.6489 13.3804 17.06 13.5341 16.3327L16.3143 3.16883ZM43.0596 3.16883C43.2127 2.44212 43.9359 1.85262 44.675 1.85262H48.6866L45.3504 17.6489H41.3382C40.5997 17.6489 40.1256 17.06 40.2793 16.3327L43.0596 3.16883ZM23.2787 1.85262H27.2904C28.0289 1.85262 28.5035 2.44153 28.3498 3.16883L25.5696 16.3327C25.4165 17.06 24.6927 17.6489 23.9542 17.6489H19.9426L23.2787 1.85262ZM50.024 1.85262H54.0357C54.7741 1.85262 55.2488 2.44153 55.0951 3.16883L52.3143 16.3327C52.1612 17.06 51.438 17.6489 50.6995 17.6489H46.6873L50.024 1.85262ZM29.6872 3.16883C29.8404 2.44212 30.5635 1.85262 31.302 1.85262H35.3143L31.9775 17.6489H27.9659C27.2274 17.6489 26.7527 17.06 26.907 16.3327L29.6866 3.16883H29.6872ZM36.6511 1.85262H40.6633C41.4018 1.85262 41.8759 2.44153 41.7222 3.16883L37.5521 22.9149C37.3978 23.6416 36.6746 24.2311 35.9361 24.2311H31.9239L36.6511 1.85262ZM7.68208 12.3835H13.0311L12.1972 16.3327C12.0435 17.06 11.3198 17.6489 10.5819 17.6489H6.56963L7.68149 12.3841L7.68208 12.3835ZM26.3511 18.9657H31.6995L30.5877 24.2311H26.576C25.837 24.2311 25.3629 23.6422 25.5166 22.9149L26.3511 18.9657ZM40.87 20.1901L40.1928 23.3973C40.1633 23.5351 40.1174 23.5727 39.9772 23.5727H39.6692C39.5291 23.5727 39.4984 23.5351 39.5279 23.3973L40.2051 20.1901C40.2346 20.0528 40.2805 20.0146 40.4207 20.0146H40.7287C40.8688 20.0146 40.8995 20.0528 40.87 20.1901ZM41.7604 22.3537H41.6974C41.6303 22.3537 41.6067 22.3726 41.5932 22.4391L41.3906 23.3973C41.3612 23.5351 41.3146 23.5727 41.1751 23.5727H40.8665C40.7269 23.5727 40.6963 23.5351 40.7251 23.3973L41.4024 20.1901C41.4318 20.0528 41.479 20.0146 41.6185 20.0146H42.2545C42.9871 20.0146 43.2645 20.2754 43.1291 20.9156L43.016 21.4521C42.8806 22.0928 42.493 22.3537 41.7604 22.3537ZM41.9465 20.7642L41.7699 21.604C41.7551 21.6706 41.7705 21.6894 41.8382 21.6894H41.9395C42.175 21.6894 42.3017 21.5946 42.3529 21.3526L42.4236 21.0157C42.4748 20.7743 42.3888 20.6789 42.1527 20.6789H42.0514C41.9842 20.6789 41.9607 20.6977 41.9465 20.7642ZM44.1479 21.2813L44.6485 21.8319C44.9111 22.1164 44.9476 22.2872 44.8805 22.6052L44.8628 22.6906C44.7362 23.2883 44.4347 23.6204 43.7356 23.6204C43.0372 23.6204 42.8647 23.3407 43.026 22.5763L43.046 22.4821C43.0755 22.3443 43.122 22.306 43.2616 22.306H43.589C43.7292 22.306 43.7598 22.3443 43.7303 22.4815L43.6862 22.6906C43.6461 22.8802 43.7074 22.9562 43.8758 22.9562C44.0448 22.9562 44.1367 22.8855 44.1732 22.7147L44.1921 22.624C44.2203 22.4909 44.205 22.425 44.0601 22.2683L43.589 21.7607C43.3252 21.4809 43.2916 21.319 43.3587 21.001L43.3805 20.8973C43.5071 20.2996 43.8087 19.9669 44.5071 19.9669C45.2062 19.9669 45.3787 20.2472 45.2173 21.011L45.1973 21.1058C45.1679 21.2436 45.1213 21.2813 44.9818 21.2813H44.6538C44.5142 21.2813 44.4836 21.2436 44.5124 21.1058L44.5566 20.8973C44.5966 20.7071 44.536 20.6317 44.367 20.6317C44.1985 20.6317 44.1061 20.7024 44.0701 20.8732L44.0531 20.9539C44.0236 21.0917 44.0389 21.1582 44.1479 21.2813ZM46.9699 20.1901C46.9994 20.0528 47.0453 20.0146 47.1855 20.0146H47.4935C47.6336 20.0146 47.6643 20.0528 47.6348 20.1901L47.1307 22.5769C46.9693 23.3407 46.679 23.6204 45.98 23.6204C45.2815 23.6204 45.109 23.3407 45.2703 22.5763L45.7744 20.1901C45.8039 20.0528 45.8504 20.0146 45.99 20.0146H46.2986C46.4381 20.0146 46.4688 20.0528 46.4399 20.1901L45.9117 22.6906C45.8716 22.8802 45.9376 22.9562 46.1207 22.9562C46.2986 22.9562 46.4016 22.8802 46.4417 22.6906L46.9699 20.1901ZM48.9758 22.1211C48.9775 22.1594 48.9899 22.1682 49.014 22.1682C49.0376 22.1682 49.0547 22.1594 49.0723 22.1211L49.9051 20.1382C49.9457 20.0381 49.994 20.0146 50.1147 20.0146H50.5823C50.7219 20.0146 50.7525 20.0528 50.7236 20.1901L50.0464 23.3973C50.0169 23.5351 49.9698 23.5727 49.8303 23.5727H49.6088C49.4693 23.5727 49.438 23.5351 49.4675 23.3973L49.7926 21.8602C49.8014 21.8178 49.7938 21.8078 49.7649 21.8078C49.7455 21.8078 49.7237 21.8178 49.7119 21.8508L49.0394 23.4167C48.9911 23.5303 48.9292 23.5727 48.7897 23.5727H48.6589C48.5141 23.5727 48.4705 23.5303 48.4705 23.4167L48.454 21.8502C48.451 21.8172 48.4434 21.8078 48.4192 21.8078C48.3904 21.8078 48.3786 21.8178 48.3698 21.8602L48.0453 23.3973C48.0158 23.5351 47.9699 23.5727 47.8297 23.5727H47.6083C47.4681 23.5727 47.4375 23.5351 47.467 23.3973L48.1442 20.1901C48.1737 20.0528 48.2202 20.0146 48.3598 20.0146H48.7602C48.9286 20.0146 48.9828 20.0528 48.9816 20.2189L48.9752 22.1211H48.9758ZM59.0237 1.85262C59.0237 2.50337 58.4996 3.03044 57.8535 3.03044C57.6994 3.02998 57.5468 2.99914 57.4045 2.93969C57.2623 2.88024 57.1331 2.79334 57.0244 2.68397C56.9158 2.57459 56.8297 2.44487 56.7712 2.30223C56.7127 2.15958 56.6828 2.0068 56.6834 1.85262C56.6834 1.20188 57.2075 0.674805 57.8535 0.674805C58.4996 0.674805 59.0237 1.20188 59.0237 1.85262Z" fill="#FCFFF6"/>
</g>
<defs>
<clipPath id="clip0_470_2274">
<rect width="58.8909" height="23.5563" fill="white" transform="translate(0.132812 0.674805)"/>
</clipPath>
</defs>
</svg>
