<svg width="109" height="21" viewBox="0 0 109 21" fill="none" xmlns="http://www.w3.org/2000/svg">
<g clip-path="url(#clip0_470_2261)">
<path d="M26.8169 1.4375H29.5204V16.1837H33.9688V18.6414H26.8169V1.4375Z" fill="#FCFFF6"/>
<path d="M39.077 18.8868C37.7498 18.8868 36.734 18.51 36.0294 17.7563C35.3249 17.0026 34.9727 15.9376 34.9727 14.5613V5.51696C34.9727 4.14065 35.3249 3.07564 36.0294 2.32195C36.734 1.56825 37.7498 1.19141 39.077 1.19141C40.4041 1.19141 41.42 1.56825 42.1246 2.32195C42.8291 3.07564 43.1813 4.14065 43.1813 5.51696V14.5613C43.1813 15.9376 42.8291 17.0026 42.1246 17.7563C41.42 18.51 40.4041 18.8868 39.077 18.8868ZM39.077 16.4292C40.0109 16.4292 40.4779 15.8638 40.4779 14.7333V5.34492C40.4779 4.21438 40.0109 3.6491 39.077 3.6491C38.1431 3.6491 37.6761 4.21438 37.6761 5.34492V14.7333C37.6761 15.8638 38.1431 16.4292 39.077 16.4292Z" fill="#FCFFF6"/>
<path d="M48.8436 18.8868C47.5329 18.8868 46.5334 18.5182 45.8452 17.7809C45.1571 17.0272 44.813 15.954 44.813 14.5613V5.51696C44.813 4.12426 45.1571 3.05926 45.8452 2.32195C46.5334 1.56825 47.5329 1.19141 48.8436 1.19141C50.1544 1.19141 51.1538 1.56825 51.842 2.32195C52.5302 3.05926 52.8743 4.12426 52.8743 5.51696V6.99158H50.3182V5.34492C50.3182 4.21438 49.8513 3.6491 48.9173 3.6491C47.9835 3.6491 47.5165 4.21438 47.5165 5.34492V14.7579C47.5165 15.8721 47.9835 16.4292 48.9173 16.4292C49.8513 16.4292 50.3182 15.8721 50.3182 14.7579V11.3909H48.9665V8.93318H52.8743V14.5613C52.8743 15.954 52.5302 17.0272 51.842 17.7809C51.1538 18.5182 50.1544 18.8868 48.8436 18.8868Z" fill="#FCFFF6"/>
<path d="M58.5179 18.8868C57.1908 18.8868 56.1749 18.51 55.4704 17.7563C54.7658 17.0026 54.4136 15.9376 54.4136 14.5613V5.51696C54.4136 4.14065 54.7658 3.07564 55.4704 2.32195C56.1749 1.56825 57.1908 1.19141 58.5179 1.19141C59.8451 1.19141 60.861 1.56825 61.5655 2.32195C62.2701 3.07564 62.6223 4.14065 62.6223 5.51696V14.5613C62.6223 15.9376 62.2701 17.0026 61.5655 17.7563C60.861 18.51 59.8451 18.8868 58.5179 18.8868ZM58.5179 16.4292C59.4519 16.4292 59.9188 15.8638 59.9188 14.7333V5.34492C59.9188 4.21438 59.4519 3.6491 58.5179 3.6491C57.584 3.6491 57.1171 4.21438 57.1171 5.34492V14.7333C57.1171 15.8638 57.584 16.4292 58.5179 16.4292Z" fill="#FCFFF6"/>
<path d="M64.4556 1.4375H67.1591V18.6414H64.4556V1.4375Z" fill="#FCFFF6"/>
<path d="M69.1836 1.4375H73.165C74.5084 1.4375 75.5161 1.79796 76.1882 2.51889C76.8602 3.23981 77.1959 4.29662 77.1959 5.68932V7.38512C77.1959 8.77785 76.8602 9.83463 76.1882 10.5556C75.5161 11.2765 74.5084 11.6369 73.165 11.6369H71.8873V18.6414H69.1836V1.4375ZM73.165 9.17924C73.6076 9.17924 73.9352 9.05634 74.1484 8.8106C74.3778 8.5648 74.4922 8.14703 74.4922 7.55716V5.51729C74.4922 4.92743 74.3778 4.50962 74.1484 4.26385C73.9352 4.01808 73.6076 3.8952 73.165 3.8952H71.8873V9.17924H73.165Z" fill="#FCFFF6"/>
<path d="M82.2744 18.8868C80.9642 18.8868 79.9727 18.5182 79.3007 17.7809C78.6293 17.0272 78.293 15.954 78.293 14.5613V13.5782H80.8491V14.7579C80.8491 15.8721 81.3161 16.4292 82.25 16.4292C82.7089 16.4292 83.0527 16.2981 83.2821 16.0359C83.5278 15.7574 83.651 15.315 83.651 14.7087C83.651 13.9878 83.4872 13.357 83.1596 12.8164C82.8321 12.2592 82.2257 11.5957 81.3405 10.8256C80.2265 9.84249 79.4482 8.95775 79.0056 8.17127C78.5637 7.36842 78.3424 6.46727 78.3424 5.46781C78.3424 4.10788 78.6862 3.05926 79.3744 2.32195C80.0627 1.56825 81.0623 1.19141 82.3732 1.19141C83.6672 1.19141 84.6424 1.56825 85.2975 2.32195C85.9696 3.05926 86.3053 4.12426 86.3053 5.51696V6.22969H83.7491V5.34492C83.7491 4.75507 83.6347 4.32907 83.4053 4.06691C83.1759 3.78838 82.8402 3.6491 82.3976 3.6491C81.4961 3.6491 81.0461 4.19799 81.0461 5.29577C81.0461 5.91838 81.2098 6.50004 81.5374 7.04073C81.8812 7.5814 82.4957 8.23678 83.3809 9.00688C84.5111 9.98996 85.2894 10.883 85.7158 11.6858C86.1415 12.4887 86.3547 13.4307 86.3547 14.5121C86.3547 15.9212 86.0021 17.0026 85.2975 17.7563C84.6093 18.51 83.6016 18.8868 82.2744 18.8868Z" fill="#FCFFF6"/>
<path d="M91.837 18.8872C90.5261 18.8872 89.5265 18.5185 88.8382 17.7812C88.1499 17.0275 87.8062 15.9543 87.8062 14.5616V1.4375H90.5098V14.7583C90.5098 15.3481 90.6242 15.7741 90.8536 16.0363C91.0993 16.2984 91.4438 16.4295 91.8857 16.4295C92.3283 16.4295 92.664 16.2984 92.8934 16.0363C93.1391 15.7741 93.2623 15.3481 93.2623 14.7583V1.4375H95.8672V14.5616C95.8672 15.9543 95.5234 17.0275 94.8351 17.7812C94.1468 18.5185 93.1472 18.8872 91.837 18.8872Z" fill="#FCFFF6"/>
<path d="M97.7925 1.4375H101.651L103.372 13.7506H103.42L105.142 1.4375H109V18.6414H106.444V5.61559H106.395L104.428 18.6414H102.167L100.201 5.61559H100.152V18.6414H97.7925V1.4375Z" fill="#FCFFF6"/>
<path d="M0.716797 18.6411C4.04277 18.6411 6.73897 15.9448 6.73897 12.6189C6.73897 9.2929 4.04277 6.59668 0.716797 6.59668V10.8122C1.71458 10.8122 2.52344 11.6211 2.52344 12.6189C2.52344 13.6167 1.71458 14.4255 0.716797 14.4255V18.6411Z" fill="#FCFFF6"/>
<path d="M20.7905 8.60443C19.7614 8.27843 18.6655 8.10254 17.5285 8.10254C11.5695 8.10254 6.73877 12.9333 6.73877 18.8923C6.73877 19.4904 6.78744 20.0772 6.88101 20.6488H13.585C13.3457 20.1122 13.2127 19.5178 13.2127 18.8923C13.2127 16.5087 15.1449 14.5764 17.5285 14.5764C18.8313 14.5764 19.9992 15.1536 20.7905 16.0662V8.60443Z" fill="#FCFFF6"/>
<path d="M1.77539 0.574707C2.27467 5.09129 6.10387 8.60431 10.7535 8.60431C15.4032 8.60431 19.2324 5.09129 19.7316 0.574707H13.2715C12.8727 1.5745 11.8956 2.28099 10.7535 2.28099C9.61143 2.28099 8.63438 1.5745 8.23549 0.574707H1.77539Z" fill="#FCFFF6"/>
</g>
<defs>
<clipPath id="clip0_470_2261">
<rect width="108.283" height="20.3031" fill="white" transform="translate(0.716797 0.574707)"/>
</clipPath>
</defs>
</svg>
