<svg width="74" height="25" viewBox="0 0 74 25" fill="none" xmlns="http://www.w3.org/2000/svg">
<g clip-path="url(#clip0_470_2257)">
<path d="M52.5887 22.6048C53.0379 22.6048 53.3036 22.2645 53.3036 21.7324C53.3036 21.1809 53.0183 20.8601 52.5982 20.8601C52.3579 20.8601 52.191 20.9666 52.0661 21.1359H52.0602V20.2642H51.7998V22.5562H52.0602V22.3384H52.0661C52.201 22.5243 52.3644 22.6048 52.5887 22.6048ZM52.5697 22.3864C52.217 22.3864 52.0436 22.1076 52.0436 21.7354C52.0436 21.3768 52.2105 21.0814 52.5727 21.0814C52.887 21.0814 53.0379 21.3637 53.0379 21.7354C53.0379 22.1106 52.887 22.3864 52.5697 22.3864ZM53.7433 23.1048C53.9451 23.1048 54.0735 23.0338 54.2079 22.6906L54.9168 20.8986H54.6411L54.2623 21.9313C54.2114 22.0692 54.1534 22.255 54.1534 22.255H54.1475C54.1475 22.255 54.086 22.0692 54.0351 21.9313L53.6439 20.8986H53.3616L54.009 22.5083L53.9451 22.6716C53.8812 22.832 53.8072 22.874 53.6983 22.874C53.6375 22.8771 53.5769 22.8649 53.522 22.8385H53.5089V23.0693C53.58 23.0983 53.6439 23.1048 53.7433 23.1048ZM55.5814 22.5562H56.0176V20.2642H55.5814V22.5562ZM57.084 22.6048C57.5936 22.6048 57.9433 22.226 57.9433 21.7354C57.9433 21.2448 57.5942 20.8666 57.084 20.8666C56.5745 20.8666 56.2247 21.2454 56.2247 21.7354C56.2247 22.2266 56.5739 22.6048 57.084 22.6048ZM57.084 22.271C56.8148 22.271 56.6674 22.0561 56.6674 21.7354C56.6674 21.4152 56.8148 21.1968 57.084 21.1968C57.3504 21.1968 57.5007 21.4152 57.5007 21.7354C57.5007 22.0561 57.3504 22.271 57.084 22.271ZM58.8707 23.1173C59.1145 23.1173 59.3258 23.0599 59.4637 22.9314C59.5856 22.819 59.6596 22.6622 59.6596 22.4314V20.9116H59.2394V21.085H59.2329C59.1335 20.9471 58.9832 20.8666 58.7772 20.8666C58.3612 20.8666 58.0658 21.1809 58.0658 21.6715C58.0658 22.1686 58.4251 22.4568 58.7908 22.4568C58.9991 22.4568 59.124 22.374 59.2199 22.2645H59.2299V22.4444C59.2299 22.6687 59.1116 22.7876 58.8642 22.7876C58.6624 22.7876 58.5695 22.7071 58.534 22.6042H58.1014C58.1457 22.9249 58.4215 23.1173 58.8707 23.1173ZM58.8648 22.1076C58.6399 22.1076 58.492 21.9443 58.492 21.665C58.492 21.3892 58.6399 21.2164 58.8612 21.2164C59.124 21.2164 59.2524 21.4211 59.2524 21.662C59.2524 21.9058 59.14 22.1076 58.8642 22.1076H58.8648ZM60.7195 22.6048C61.2291 22.6048 61.5788 22.226 61.5788 21.7354C61.5788 21.2448 61.2291 20.8666 60.7195 20.8666C60.2094 20.8666 59.8602 21.2454 59.8602 21.7354C59.8602 22.2266 60.2094 22.6048 60.7195 22.6048ZM60.7195 22.271C60.4502 22.271 60.3023 22.0561 60.3023 21.7354C60.3023 21.4152 60.4502 21.1968 60.7195 21.1968C60.9852 21.1968 61.1361 21.4152 61.1361 21.7354C61.1361 22.0561 60.9852 22.271 60.7195 22.271ZM61.7812 22.5562H62.2174V20.9116H61.7812V22.5562ZM61.7812 20.6553H62.2174V20.2642H61.7812V20.6553ZM62.4985 23.0948H62.9346V22.371H62.9406C63.0341 22.5124 63.1844 22.6053 63.4152 22.6053C63.8383 22.6053 64.1271 22.268 64.1271 21.736C64.1271 21.2229 63.8484 20.8672 63.4122 20.8672C63.3171 20.8657 63.2231 20.8877 63.1387 20.9314C63.0542 20.9751 62.9818 21.0391 62.9281 21.1175H62.9187V20.9122H62.4985V23.096V23.0948ZM63.3223 22.2426C63.0625 22.2426 62.9246 22.0467 62.9246 21.7484C62.9246 21.4537 63.0341 21.2193 63.3063 21.2193C63.5756 21.2193 63.6845 21.4371 63.6845 21.7484C63.6845 22.0597 63.5436 22.2426 63.3223 22.2426ZM64.9971 22.6048C65.4072 22.6048 65.6895 22.4059 65.6895 22.0757C65.6895 21.691 65.3847 21.6141 65.1089 21.5561C64.8752 21.5081 64.6574 21.4951 64.6574 21.3543C64.6574 21.2359 64.7692 21.1708 64.9391 21.1708C65.1255 21.1708 65.2374 21.2359 65.2569 21.4117H65.651C65.6191 21.0814 65.3788 20.8672 64.9456 20.8672C64.5704 20.8672 64.2757 21.0365 64.2757 21.3927C64.2757 21.7514 64.5639 21.8319 64.8592 21.8899C65.0835 21.9342 65.2918 21.9502 65.2918 22.1076C65.2918 22.223 65.1829 22.297 64.9906 22.297C64.7953 22.297 64.6603 22.2136 64.6314 22.0242H64.2277C64.2532 22.3734 64.5195 22.6048 64.9971 22.6048ZM67.3454 22.5562V20.9116H66.9092V21.8609C66.9092 22.0786 66.7838 22.2325 66.579 22.2325C66.3932 22.2325 66.3062 22.1266 66.3062 21.9342V20.9116H65.8736V22.0082C65.8736 22.3674 66.0789 22.6012 66.4441 22.6012C66.6749 22.6012 66.8033 22.5148 66.9157 22.3645H66.9252V22.5562H67.3454ZM67.6271 22.5562H68.0632V21.6016C68.0632 21.3833 68.1816 21.2424 68.358 21.2424C68.5183 21.2424 68.6112 21.3389 68.6112 21.5247V22.5568H69.0474V21.6016C69.0474 21.3833 69.1599 21.2424 69.3427 21.2424C69.5031 21.2424 69.596 21.3389 69.596 21.5247V22.5568H70.0322V21.4507C70.0322 21.0915 69.8363 20.8672 69.4901 20.8672C69.2818 20.8672 69.1084 20.9761 68.9965 21.156H68.99C68.9505 21.0687 68.8863 20.9948 68.8054 20.9434C68.7244 20.8921 68.6302 20.8656 68.5343 20.8672C68.4382 20.8648 68.3431 20.8882 68.2591 20.9351C68.1751 20.9819 68.1052 21.0505 68.0567 21.1335H68.0473V20.9122H67.6271V22.5574V22.5562Z" fill="#FCFFF6"/>
<path d="M70.118 1.84681C70.118 1.1467 70.6856 0.578565 71.3857 0.578565H72.2314C72.5677 0.578565 72.8903 0.712183 73.1282 0.950024C73.366 1.18787 73.4996 1.51045 73.4996 1.84681C73.4996 2.18316 73.366 2.50575 73.1282 2.74359C72.8903 2.98143 72.5677 3.11505 72.2314 3.11505H71.3857C71.2192 3.11505 71.0543 3.08224 70.9005 3.0185C70.7466 2.95475 70.6068 2.86133 70.4891 2.74355C70.3714 2.62578 70.278 2.48596 70.2144 2.3321C70.1507 2.17823 70.118 2.01333 70.118 1.84681ZM34.615 9.03193C34.615 13.7001 30.831 17.4847 26.1622 17.4847C21.4941 17.4847 17.7095 13.7001 17.7095 9.03193C17.7095 4.36257 21.4941 0.579157 26.1622 0.579157C30.831 0.579157 34.615 4.36257 34.615 9.03193ZM16.0607 8.98991C16.5282 8.98991 16.9105 9.36866 16.8638 9.83383C16.704 11.4257 16.0957 12.9395 15.1097 14.1994C14.1237 15.4592 12.8003 16.4134 11.2935 16.951C9.78668 17.4885 8.15823 17.5875 6.59741 17.2362C5.0366 16.8849 3.60751 16.0979 2.47625 14.9667C1.34498 13.8354 0.557991 12.4063 0.206736 10.8455C-0.144519 9.2847 -0.0456127 7.65625 0.49196 6.14942C1.02953 4.64259 1.9837 3.31925 3.24356 2.33322C4.50342 1.34718 6.01725 0.73893 7.6091 0.579157C8.07367 0.531813 8.45302 0.915303 8.45302 1.38165V8.14422C8.45302 8.61174 8.83178 8.98991 9.29871 8.98991H16.0607ZM46.4493 19.1755C47.1219 19.1755 47.7669 19.4427 48.2425 19.9182C48.7181 20.3938 48.9852 21.0388 48.9852 21.7114C48.9852 22.3839 48.7181 23.029 48.2425 23.5045C47.7669 23.9801 47.1219 24.2473 46.4493 24.2473H42.2233C41.5507 24.2473 40.9057 23.9801 40.4301 23.5045C39.9545 23.029 39.6874 22.3839 39.6874 21.7114C39.6874 21.0388 39.9545 20.3938 40.4301 19.9182C40.9057 19.4427 41.5507 19.1755 42.2233 19.1755H46.4493ZM43.9135 17.4847C48.5822 17.4847 52.3668 13.7001 52.3668 9.03193C52.3688 7.59795 52.0044 6.18724 51.3081 4.93367L52.7047 3.53701C52.8656 3.37605 52.9932 3.18499 53.0802 2.97473C53.1673 2.76446 53.2121 2.53911 53.212 2.31155C53.2119 2.08398 53.1671 1.85866 53.0799 1.64843C52.9928 1.43821 52.8651 1.24721 52.7042 1.08634C52.5432 0.925461 52.3521 0.797863 52.1419 0.710828C51.9316 0.623794 51.7063 0.579026 51.4787 0.579081C51.2511 0.579136 51.0258 0.624012 50.8156 0.711149C50.6054 0.798285 50.4144 0.925975 50.2535 1.08693L49.0344 2.30605C47.5636 1.18274 45.7635 0.575587 43.9129 0.578565C39.2453 0.579157 35.4613 4.36257 35.4613 9.03193C35.4613 13.7001 39.2453 17.4847 43.9135 17.4847ZM70.118 9.03193C70.118 13.7001 66.3335 17.4847 61.6647 17.4847C56.9965 17.4847 53.2119 13.7001 53.2119 9.03193C53.2119 4.36257 56.9965 0.579157 61.6647 0.579157C66.3335 0.579157 70.118 4.36317 70.118 9.03193Z" fill="#FCFFF6"/>
</g>
<defs>
<clipPath id="clip0_470_2257">
<rect width="73.9758" height="23.6723" fill="white" transform="translate(0 0.574707)"/>
</clipPath>
</defs>
</svg>
