<svg width="420" height="237" viewBox="0 0 420 237" fill="none" xmlns="http://www.w3.org/2000/svg">
<path d="M108.508 75.6699C108.508 71.7548 111.665 69.1027 116.37 69.1027C120.727 69.1027 123.537 71.5338 123.79 75.4804H120.664C120.506 73.2072 118.896 71.8811 116.338 71.8811C113.465 71.8811 111.602 73.3335 111.602 75.5752C111.602 77.4064 112.644 78.5115 114.791 79.0166L118.548 79.9007C122.274 80.7532 124.168 82.7738 124.168 85.9943C124.168 90.0988 120.98 92.7194 116.117 92.7194C111.476 92.7194 108.382 90.2882 108.192 86.3732H111.35C111.413 88.5517 113.244 89.9409 116.117 89.9409C119.148 89.9409 121.074 88.5202 121.074 86.2469C121.074 84.4472 120.095 83.3106 117.917 82.8054L114.16 81.9529C110.434 81.1005 108.508 78.9535 108.508 75.6699Z" fill="#3D3A34"/>
<path d="M138.223 76.9012H141.159V92.3405H138.507L138.192 90.0041C137.308 91.6143 135.255 92.7194 132.982 92.7194C129.383 92.7194 127.362 90.2882 127.362 86.4995V76.9012H130.33V85.5207C130.33 88.8359 131.751 90.0988 134.024 90.0988C136.739 90.0988 138.223 88.3623 138.223 85.0471V76.9012Z" fill="#3D3A34"/>
<path d="M143.894 87.8571H146.736C146.736 89.4358 147.936 90.383 149.893 90.383C151.977 90.383 153.177 89.5305 153.177 88.1097C153.177 87.0678 152.672 86.4363 151.061 86.0259L148.346 85.3944C145.599 84.7314 144.305 83.3737 144.305 81.1005C144.305 78.2589 146.704 76.4592 150.114 76.4592C153.492 76.4592 155.703 78.3536 155.766 81.2899H152.924C152.861 79.7428 151.819 78.764 150.019 78.764C148.157 78.764 147.115 79.5849 147.115 81.0057C147.115 82.0477 147.872 82.7423 149.388 83.1211L152.103 83.7842C154.724 84.4156 156.018 85.6154 156.018 87.9203C156.018 90.8566 153.492 92.7194 149.83 92.7194C146.199 92.7194 143.894 90.7934 143.894 87.8571Z" fill="#3D3A34"/>
<path d="M163.667 92.3405H160.699V79.3955H157.668V76.9012H160.699V72.0705H163.667V76.9012H166.698V79.3955H163.667V92.3405Z" fill="#3D3A34"/>
<path d="M173.691 92.7194C170.376 92.7194 168.418 90.8566 168.418 88.0466C168.418 85.205 170.534 83.4369 174.165 83.1527L179.027 82.7738V82.3318C179.027 79.7428 177.48 78.8272 175.396 78.8272C172.902 78.8272 171.481 79.9323 171.481 81.7951H168.892C168.892 78.5746 171.544 76.4592 175.522 76.4592C179.343 76.4592 181.932 78.4799 181.932 82.6475V92.3405H179.406L179.09 89.8462C178.301 91.6143 176.185 92.7194 173.691 92.7194ZM174.544 90.4145C177.354 90.4145 179.059 88.5833 179.059 85.6786V84.8577L175.112 85.1734C172.491 85.426 171.418 86.4363 171.418 87.9518C171.418 89.5936 172.618 90.4145 174.544 90.4145Z" fill="#3D3A34"/>
<path d="M187.494 73.2387C186.421 73.2387 185.537 72.3547 185.537 71.2812C185.537 70.1761 186.421 69.3237 187.494 69.3237C188.568 69.3237 189.452 70.1761 189.452 71.2812C189.452 72.3547 188.568 73.2387 187.494 73.2387ZM186.042 92.3405V76.9012H189.01V92.3405H186.042Z" fill="#3D3A34"/>
<path d="M196.286 92.3405H193.319V76.9012H196.002L196.318 79.2692C197.297 77.5011 199.254 76.4592 201.433 76.4592C205.506 76.4592 207.369 78.9535 207.369 82.9001V92.3405H204.401V83.5632C204.401 80.4374 202.948 79.1745 200.675 79.1745C197.897 79.1745 196.286 81.1636 196.286 84.1631V92.3405Z" fill="#3D3A34"/>
<path d="M215.994 92.7194C212.679 92.7194 210.722 90.8566 210.722 88.0466C210.722 85.205 212.837 83.4369 216.468 83.1527L221.33 82.7738V82.3318C221.33 79.7428 219.783 78.8272 217.699 78.8272C215.205 78.8272 213.784 79.9323 213.784 81.7951H211.195C211.195 78.5746 213.847 76.4592 217.825 76.4592C221.646 76.4592 224.235 78.4799 224.235 82.6475V92.3405H221.709L221.393 89.8462C220.604 91.6143 218.488 92.7194 215.994 92.7194ZM216.847 90.4145C219.657 90.4145 221.362 88.5833 221.362 85.6786V84.8577L217.415 85.1734C214.794 85.426 213.721 86.4363 213.721 87.9518C213.721 89.5936 214.921 90.4145 216.847 90.4145Z" fill="#3D3A34"/>
<path d="M231.029 92.3405H228.345V69.1027H231.313V79.5534C232.323 77.5327 234.407 76.4592 236.933 76.4592C241.353 76.4592 244.005 79.9323 244.005 84.6998C244.005 89.3726 241.227 92.7194 236.743 92.7194C234.312 92.7194 232.26 91.6459 231.25 89.5305L231.029 92.3405ZM231.344 84.5735C231.344 87.794 233.176 90.0357 236.207 90.0357C239.238 90.0357 241.037 87.7624 241.037 84.5735C241.037 81.4162 239.238 79.1429 236.207 79.1429C233.176 79.1429 231.344 81.4162 231.344 84.5735Z" fill="#3D3A34"/>
<path d="M248.729 73.2387C247.655 73.2387 246.771 72.3547 246.771 71.2812C246.771 70.1761 247.655 69.3237 248.729 69.3237C249.802 69.3237 250.686 70.1761 250.686 71.2812C250.686 72.3547 249.802 73.2387 248.729 73.2387ZM247.277 92.3405V76.9012H250.244V92.3405H247.277Z" fill="#3D3A34"/>
<path d="M257.584 92.3405H254.616V69.1027H257.584V92.3405Z" fill="#3D3A34"/>
<path d="M263.406 73.2387C262.332 73.2387 261.448 72.3547 261.448 71.2812C261.448 70.1761 262.332 69.3237 263.406 69.3237C264.479 69.3237 265.363 70.1761 265.363 71.2812C265.363 72.3547 264.479 73.2387 263.406 73.2387ZM261.953 92.3405V76.9012H264.921V92.3405H261.953Z" fill="#3D3A34"/>
<path d="M273.587 92.3405H270.619V79.3955H267.588V76.9012H270.619V72.0705H273.587V76.9012H276.618V79.3955H273.587V92.3405Z" fill="#3D3A34"/>
<path d="M277.797 99.255V96.8239H279.787C281.207 96.8239 282.344 96.6029 283.07 94.6453L283.607 93.1614L277.387 76.9012H280.513L284.996 89.3411L289.574 76.9012H292.637L285.343 95.8135C284.301 98.4657 282.754 99.5708 280.386 99.5708C279.408 99.5708 278.587 99.4445 277.797 99.255Z" fill="#3D3A34"/>
<path d="M307.239 92.3405H304.145V69.5131H307.239V79.3324H318.542V69.5131H321.636V92.3405H318.542V82.2055H307.239V92.3405Z" fill="#3D3A34"/>
<path d="M337.097 76.9012H340.033V92.3405H337.381L337.065 90.0041C336.181 91.6143 334.129 92.7194 331.856 92.7194C328.257 92.7194 326.236 90.2882 326.236 86.4995V76.9012H329.204V85.5207C329.204 88.8359 330.624 90.0988 332.898 90.0988C335.613 90.0988 337.097 88.3623 337.097 85.0471V76.9012Z" fill="#3D3A34"/>
<path d="M347.023 92.3405H344.339V69.1027H347.307V79.5534C348.318 77.5327 350.401 76.4592 352.927 76.4592C357.347 76.4592 360 79.9323 360 84.6998C360 89.3726 357.221 92.7194 352.738 92.7194C350.307 92.7194 348.254 91.6459 347.244 89.5305L347.023 92.3405ZM347.339 84.5735C347.339 87.794 349.17 90.0357 352.201 90.0357C355.232 90.0357 357.032 87.7624 357.032 84.5735C357.032 81.4162 355.232 79.1429 352.201 79.1429C349.17 79.1429 347.339 81.4162 347.339 84.5735Z" fill="#3D3A34"/>
<g clip-path="url(#clip0_1314_2868)">
<path d="M77.1256 73.1614C76.7698 70.1127 76.3942 66.8938 76.3942 63.156H79.7504C79.7504 66.8518 79.3766 70.0666 79.0213 73.1187C78.7318 75.606 78.455 77.9852 78.4036 80.4286C80.0888 78.6708 81.563 76.8069 83.1072 74.8545C85.0112 72.4472 87.022 69.9055 89.6648 67.2626L92.038 69.6359C89.4247 72.2492 86.8868 74.2579 84.4775 76.165L84.4752 76.1667C82.5127 77.7203 80.6354 79.2064 78.872 80.897C81.3063 80.8456 83.6667 80.5702 86.139 80.2817C89.1877 79.9258 92.4069 79.5502 96.1446 79.5502V82.9064C92.449 82.9064 89.2341 82.5324 86.1821 82.1773L86.1799 82.1771C83.6931 81.8878 81.3146 81.6111 78.872 81.5596C80.6286 83.2435 82.4915 84.7171 84.4427 86.2603L84.4458 86.2629C86.8531 88.1671 89.3949 90.1776 92.038 92.8208L89.6648 95.194C87.0514 92.5808 85.0428 90.0431 83.136 87.6339L83.1314 87.6277L83.1277 87.6227C81.5761 85.6633 80.0918 83.789 78.4036 82.028C78.455 84.4714 78.7318 86.8506 79.0213 89.3379C79.3766 92.39 79.7504 95.6048 79.7504 99.3006H76.3942C76.3942 95.5629 76.7698 92.3439 77.1256 89.2952L77.1263 89.2903C77.4145 86.8196 77.6896 84.4607 77.741 82.028C76.0528 83.789 74.5685 85.6633 73.0169 87.6227L73.0131 87.6277L73.0086 87.6339C71.1018 90.0431 69.0932 92.5808 66.4799 95.194L64.1066 92.8208C66.7496 90.1776 69.2915 88.1671 71.6988 86.2629L71.7019 86.2603C73.6531 84.7171 75.516 83.2435 77.2726 81.5596C74.8292 81.6112 72.4499 81.8879 69.9624 82.1773C66.9105 82.5324 63.6956 82.9064 60 82.9064V79.5502C63.7377 79.5502 66.9569 79.9258 70.0055 80.2817C72.4779 80.5702 74.8383 80.8456 77.2726 80.897C75.5085 79.2057 73.6304 77.7192 71.6671 76.165C69.2578 74.2579 66.7199 72.2492 64.1066 69.6359L66.4799 67.2626C69.1226 69.9055 71.1333 72.4472 73.0374 74.8545C74.5816 76.8068 76.0558 78.6707 77.741 80.4284C77.6896 77.9958 77.4145 75.637 77.1263 73.1663L77.1256 73.1614Z" fill="#3D3A34"/>
</g>
<rect x="32.4495" y="134.449" width="174.404" height="54.8384" rx="8.5404" fill="#DAFAA1"/>
<rect x="32.4495" y="134.449" width="174.404" height="54.8384" rx="8.5404" stroke="#DAFAA1" stroke-width="0.89899"/>
<path d="M73.9237 155.42V168.419H72.1617V155.42H73.9237ZM79.0408 156.732C79.0408 158.045 78.1238 159.106 76.8652 159.267V158.512C77.5664 158.386 78.0699 157.919 78.0699 157.344C77.944 157.416 77.7822 157.452 77.5664 157.452C77.027 157.452 76.5596 157.056 76.5596 156.355C76.5596 155.672 77.027 155.168 77.7462 155.168C78.4654 155.168 79.0408 155.761 79.0408 156.732ZM83.0632 168.419H81.3731V159.627H82.8834L83.0452 160.778C83.4947 159.951 84.4297 159.375 85.6703 159.375C87.0367 159.375 88.0076 160.059 88.4571 161.155C88.8707 160.059 89.9315 159.375 91.2979 159.375C93.3117 159.375 94.5343 160.634 94.5343 162.666V168.419H92.8802V163.079C92.8802 161.695 92.107 160.904 90.9204 160.904C89.6438 160.904 88.7987 161.803 88.7987 163.205V168.419H87.1266V163.061C87.1266 161.677 86.3715 160.922 85.1848 160.922C83.9082 160.922 83.0632 161.803 83.0632 163.205V168.419ZM104.365 168.635C102.477 168.635 101.362 167.574 101.362 165.974C101.362 164.356 102.567 163.349 104.634 163.187L107.403 162.971V162.72C107.403 161.245 106.522 160.724 105.336 160.724C103.915 160.724 103.106 161.353 103.106 162.414H101.632C101.632 160.58 103.142 159.375 105.407 159.375C107.583 159.375 109.057 160.526 109.057 162.899V168.419H107.619L107.439 166.999C106.99 168.006 105.785 168.635 104.365 168.635ZM104.85 167.322C106.45 167.322 107.421 166.28 107.421 164.625V164.158L105.174 164.338C103.681 164.482 103.07 165.057 103.07 165.92C103.07 166.855 103.753 167.322 104.85 167.322ZM117.843 168.419H116.314V155.186H118.004V161.137C118.58 159.987 119.766 159.375 121.205 159.375C123.722 159.375 125.232 161.353 125.232 164.068C125.232 166.729 123.65 168.635 121.097 168.635C119.712 168.635 118.544 168.024 117.968 166.819L117.843 168.419ZM118.022 163.996C118.022 165.83 119.065 167.107 120.791 167.107C122.517 167.107 123.542 165.812 123.542 163.996C123.542 162.198 122.517 160.904 120.791 160.904C119.065 160.904 118.022 162.198 118.022 163.996ZM132.962 159.627H134.634V168.419H133.123L132.944 167.089C132.44 168.006 131.272 168.635 129.977 168.635C127.927 168.635 126.777 167.251 126.777 165.093V159.627H128.467V164.536C128.467 166.423 129.276 167.143 130.57 167.143C132.117 167.143 132.962 166.154 132.962 164.266V159.627ZM139.567 168.419H137.877V161.047H136.151V159.627H137.877V156.876H139.567V159.627H141.293V161.047H139.567V168.419ZM145.449 168.419H143.759V161.047H142.033V159.627H143.759V156.876H145.449V159.627H147.175V161.047H145.449V168.419ZM148.029 164.014C148.029 161.299 149.971 159.393 152.614 159.393C155.239 159.393 157.181 161.299 157.181 164.014C157.181 166.729 155.239 168.635 152.614 168.635C149.971 168.635 148.029 166.729 148.029 164.014ZM149.737 164.014C149.737 165.848 150.906 167.125 152.614 167.125C154.304 167.125 155.49 165.848 155.49 164.014C155.49 162.18 154.304 160.904 152.614 160.904C150.906 160.904 149.737 162.18 149.737 164.014ZM160.742 168.419H159.051V159.627H160.58L160.76 160.976C161.317 159.969 162.432 159.375 163.672 159.375C165.992 159.375 167.052 160.796 167.052 163.043V168.419H165.362V163.421C165.362 161.641 164.535 160.922 163.241 160.922C161.659 160.922 160.742 162.054 160.742 163.762V168.419Z" fill="#3D3A34"/>
<rect x="213.147" y="134.449" width="174.404" height="54.8384" rx="8.5404" fill="#3D3A34"/>
<rect x="213.147" y="134.449" width="174.404" height="54.8384" rx="8.5404" stroke="#3D3A34" stroke-width="0.89899"/>
<path d="M254.621 155.42V168.419H252.859V155.42H254.621ZM259.738 156.732C259.738 158.045 258.821 159.106 257.562 159.267V158.512C258.264 158.386 258.767 157.919 258.767 157.344C258.641 157.416 258.479 157.452 258.264 157.452C257.724 157.452 257.257 157.056 257.257 156.355C257.257 155.672 257.724 155.168 258.443 155.168C259.163 155.168 259.738 155.761 259.738 156.732ZM263.76 168.419H262.07V159.627H263.581L263.742 160.778C264.192 159.951 265.127 159.375 266.368 159.375C267.734 159.375 268.705 160.059 269.154 161.155C269.568 160.059 270.629 159.375 271.995 159.375C274.009 159.375 275.232 160.634 275.232 162.666V168.419H273.577V163.079C273.577 161.695 272.804 160.904 271.618 160.904C270.341 160.904 269.496 161.803 269.496 163.205V168.419H267.824V163.061C267.824 161.677 267.069 160.922 265.882 160.922C264.606 160.922 263.76 161.803 263.76 163.205V168.419ZM285.062 168.635C283.174 168.635 282.059 167.574 282.059 165.974C282.059 164.356 283.264 163.349 285.332 163.187L288.1 162.971V162.72C288.1 161.245 287.219 160.724 286.033 160.724C284.612 160.724 283.803 161.353 283.803 162.414H282.329C282.329 160.58 283.839 159.375 286.105 159.375C288.28 159.375 289.755 160.526 289.755 162.899V168.419H288.316L288.136 166.999C287.687 168.006 286.482 168.635 285.062 168.635ZM285.547 167.322C287.148 167.322 288.118 166.28 288.118 164.625V164.158L285.871 164.338C284.379 164.482 283.767 165.057 283.767 165.92C283.767 166.855 284.451 167.322 285.547 167.322ZM298.54 168.419H297.012V155.186H298.702V161.137C299.277 159.987 300.464 159.375 301.902 159.375C304.419 159.375 305.93 161.353 305.93 164.068C305.93 166.729 304.347 168.635 301.794 168.635C300.41 168.635 299.241 168.024 298.666 166.819L298.54 168.419ZM298.72 163.996C298.72 165.83 299.762 167.107 301.489 167.107C303.215 167.107 304.239 165.812 304.239 163.996C304.239 162.198 303.215 160.904 301.489 160.904C299.762 160.904 298.72 162.198 298.72 163.996ZM313.659 159.627H315.331V168.419H313.821L313.641 167.089C313.137 168.006 311.969 168.635 310.674 168.635C308.625 168.635 307.474 167.251 307.474 165.093V159.627H309.164V164.536C309.164 166.423 309.973 167.143 311.268 167.143C312.814 167.143 313.659 166.154 313.659 164.266V159.627ZM320.264 168.419H318.574V161.047H316.848V159.627H318.574V156.876H320.264V159.627H321.99V161.047H320.264V168.419ZM326.146 168.419H324.456V161.047H322.73V159.627H324.456V156.876H326.146V159.627H327.872V161.047H326.146V168.419ZM328.726 164.014C328.726 161.299 330.668 159.393 333.311 159.393C335.936 159.393 337.878 161.299 337.878 164.014C337.878 166.729 335.936 168.635 333.311 168.635C330.668 168.635 328.726 166.729 328.726 164.014ZM330.434 164.014C330.434 165.848 331.603 167.125 333.311 167.125C335.001 167.125 336.188 165.848 336.188 164.014C336.188 162.18 335.001 160.904 333.311 160.904C331.603 160.904 330.434 162.18 330.434 164.014ZM341.439 168.419H339.749V159.627H341.277L341.457 160.976C342.014 159.969 343.129 159.375 344.37 159.375C346.689 159.375 347.75 160.796 347.75 163.043V168.419H346.06V163.421C346.06 161.641 345.233 160.922 343.938 160.922C342.356 160.922 341.439 162.054 341.439 163.762V168.419Z" fill="#DAFAA1"/>
<defs>
<clipPath id="clip0_1314_2868">
<rect width="36.1446" height="36.1446" fill="white" transform="translate(60 63.156)"/>
</clipPath>
</defs>
</svg>
