<svg width="256" height="256" viewBox="0 0 256 256" fill="none" xmlns="http://www.w3.org/2000/svg">
<rect width="256" height="256" rx="48" fill="#DAFAA1"/>
<path d="M123.809 92.2904C122.234 78.7949 120.572 64.5458 120.572 48H135.428C135.428 64.3599 133.774 78.591 132.201 92.1016C130.92 103.112 129.694 113.644 129.466 124.46C136.926 116.679 143.452 108.428 150.288 99.7852C158.716 89.1292 167.617 77.8778 179.316 66.1786L189.822 76.6842C178.253 88.2524 167.019 97.1444 156.354 105.586L156.344 105.594C147.656 112.471 139.346 119.05 131.54 126.534C142.316 126.306 152.764 125.087 163.709 123.81C177.204 122.234 191.454 120.572 208 120.572V135.428C191.641 135.428 177.41 133.773 163.9 132.201L163.89 132.2C152.882 130.919 142.353 129.694 131.54 129.466C139.316 136.921 147.562 143.444 156.2 150.275L156.213 150.286C166.87 158.716 178.122 167.616 189.822 179.316L179.316 189.822C167.748 178.254 158.856 167.02 150.415 156.356L150.395 156.328L150.378 156.306C143.51 147.632 136.94 139.335 129.466 131.54C129.694 142.356 130.92 152.888 132.201 163.898C133.774 177.409 135.428 191.64 135.428 208H120.572C120.572 191.454 122.234 177.205 123.809 163.71L123.812 163.688C125.088 152.751 126.306 142.309 126.534 131.54C119.06 139.335 112.49 147.632 105.622 156.306L105.605 156.328L105.585 156.356C97.144 167.02 88.2524 178.254 76.6842 189.822L66.1786 179.316C77.8784 167.616 89.1304 158.716 99.7868 150.286L99.8004 150.275C108.438 143.444 116.684 136.921 124.46 129.466C113.644 129.695 103.112 130.92 92.1004 132.201C78.5904 133.773 64.3594 135.428 48 135.428V120.572C64.5458 120.572 78.7958 122.234 92.2912 123.81C103.236 125.087 113.684 126.306 124.46 126.534C116.651 119.047 108.337 112.466 99.6464 105.586C88.9812 97.1444 77.7466 88.2524 66.1786 76.6842L76.6842 66.1786C88.3828 77.8778 97.2836 89.1292 105.712 99.7852C112.548 108.428 119.074 116.678 126.534 124.459C126.306 113.691 125.088 103.249 123.812 92.3124L123.809 92.2904Z" fill="#3D3A34"/>
</svg>
