<svg width="32" height="32" viewBox="0 0 32 32" fill="none" xmlns="http://www.w3.org/2000/svg">
<rect width="32" height="32" rx="6" fill="#DAFAA1"/>
<path d="M15.4761 11.5363C15.2793 9.84937 15.0715 8.06822 15.0715 6H16.9285C16.9285 8.04499 16.7217 9.82387 16.5251 11.5127C16.3649 12.889 16.2118 14.2055 16.1833 15.5575C17.1158 14.5848 17.9315 13.5535 18.786 12.4731C19.8396 11.1411 20.9521 9.73472 22.4145 8.27232L23.7277 9.58552C22.2816 11.0316 20.8773 12.143 19.5442 13.1983L19.5429 13.1993C18.457 14.0589 17.4183 14.8812 16.4425 15.8167C17.7895 15.7882 19.0956 15.6359 20.4636 15.4762C22.1506 15.2793 23.9318 15.0715 26 15.0715V16.9285C23.9551 16.9285 22.1762 16.7216 20.4874 16.5251L20.4862 16.525C19.1102 16.3649 17.7941 16.2118 16.4425 16.1833C17.4145 17.1151 18.4453 17.9305 19.525 18.7844L19.5267 18.7858C20.8587 19.8395 22.2652 20.9519 23.7277 22.4145L22.4145 23.7277C20.9684 22.2817 19.857 20.8775 18.8019 19.5444L18.7994 19.541L18.7973 19.5382C17.9388 18.454 17.1174 17.4169 16.1833 16.4425C16.2118 17.7945 16.3649 19.111 16.5251 20.4873C16.7217 22.1761 16.9285 23.955 16.9285 26H15.0715C15.0715 23.9318 15.2793 22.1507 15.4761 20.4637L15.4766 20.4609C15.636 19.0938 15.7882 17.7886 15.8167 16.4425C14.8826 17.4169 14.0613 18.454 13.2027 19.5382L13.2006 19.541L13.1981 19.5444C12.143 20.8775 11.0316 22.2817 9.58552 23.7277L8.27232 22.4145C9.73479 20.9519 11.1413 19.8395 12.4734 18.7858L12.475 18.7844C13.5547 17.9305 14.5855 17.1151 15.5575 16.1833C14.2055 16.2119 12.8889 16.365 11.5125 16.5251C9.8238 16.7216 8.04492 16.9285 6 16.9285V15.0715C8.06822 15.0715 9.84947 15.2793 11.5364 15.4762C12.9044 15.6359 14.2105 15.7882 15.5575 15.8167C14.5813 14.8808 13.5422 14.0583 12.4558 13.1983C11.1227 12.143 9.71833 11.0316 8.27232 9.58552L9.58552 8.27232C11.0479 9.73472 12.1605 11.1411 13.214 12.4731C14.0685 13.5534 14.8842 14.5848 15.8167 15.5574C15.7882 14.2113 15.636 12.9062 15.4766 11.5391L15.4761 11.5363Z" fill="#3D3A34"/>
</svg>
